<svg width="20" height="20" viewBox="0 0 20 20" fill="none" xmlns="http://www.w3.org/2000/svg">
<path d="M16.6666 9.16666H19.1666V10.8333H16.6666V9.16666ZM0.833313 9.16666H3.33331V10.8333H0.833313V9.16666ZM10.8333 0.833328V3.33333H9.16665V0.833328H10.8333ZM4.09998 2.91666L5.87498 4.69999L4.69165 5.87499L2.91665 4.10833L4.09998 2.91666ZM14.125 4.69166L15.8916 2.91666L17.0833 4.10833L15.3083 5.87499L14.125 4.69166ZM9.99998 4.99999C11.3261 4.99999 12.5978 5.52678 13.5355 6.46446C14.4732 7.40214 15 8.67391 15 9.99999C15 11.85 13.9916 13.4667 12.5 14.3333V15.8333C12.5 16.0543 12.4122 16.2663 12.2559 16.4226C12.0996 16.5789 11.8877 16.6667 11.6666 16.6667H8.33331C8.1123 16.6667 7.90034 16.5789 7.74406 16.4226C7.58778 16.2663 7.49998 16.0543 7.49998 15.8333V14.3333C6.00831 13.4667 4.99998 11.85 4.99998 9.99999C4.99998 8.67391 5.52676 7.40214 6.46445 6.46446C7.40213 5.52678 8.6739 4.99999 9.99998 4.99999ZM11.6666 17.5V18.3333C11.6666 18.5543 11.5788 18.7663 11.4226 18.9226C11.2663 19.0789 11.0543 19.1667 10.8333 19.1667H9.16665C8.94563 19.1667 8.73367 19.0789 8.57739 18.9226C8.42111 18.7663 8.33331 18.5543 8.33331 18.3333V17.5H11.6666ZM9.16665 15H10.8333V13.225C12.275 12.8583 13.3333 11.55 13.3333 9.99999C13.3333 9.11594 12.9821 8.26809 12.357 7.64297C11.7319 7.01785 10.884 6.66666 9.99998 6.66666C9.11592 6.66666 8.26808 7.01785 7.64296 7.64297C7.01784 8.26809 6.66665 9.11594 6.66665 9.99999C6.66665 11.55 7.72498 12.8583 9.16665 13.225V15Z" fill="#CECECE"/>
</svg>
